<svg xmlns="http://www.w3.org/2000/svg" viewBox="0 0 800 560" font-family="Segoe UI, sans-serif">
  <rect x="0" y="0" width="800" height="560" fill="#ffffff" stroke="#111111" stroke-width="2"/>
  <rect x="0" y="0" width="800" height="52" fill="#ffffff" stroke="#111111" stroke-width="2"/>
  <text x="24" y="33" font-size="18" font-weight="bold" fill="#111111">RésaTrajets</text>
  <text x="500" y="33" font-size="14" fill="#111111">Rechercher</text>
  <text x="600" y="33" font-size="14" fill="#111111">Mes réservations</text>
  <rect x="716" y="12" width="70" height="28" fill="none" stroke="#111111"/>
  <text x="726" y="31" font-size="13" fill="#111111">Connexion</text>
  <text x="60" y="96" font-size="20" font-weight="bold" fill="#111111">Résultats de recherche</text>
  <rect x="60" y="112" width="680" height="58" fill="none" stroke="#111111"/>
  <rect x="76" y="126" width="150" height="30" fill="none" stroke="#555555" stroke-dasharray="5,4"/>
  <text x="86" y="146" font-size="12" fill="#555555">Paris</text>
  <rect x="242" y="126" width="150" height="30" fill="none" stroke="#555555" stroke-dasharray="5,4"/>
  <text x="252" y="146" font-size="12" fill="#555555">Lyon</text>
  <rect x="408" y="126" width="130" height="30" fill="none" stroke="#555555" stroke-dasharray="5,4"/>
  <text x="418" y="146" font-size="12" fill="#555555">25/07/2026</text>
  <rect x="554" y="126" width="110" height="30" fill="#111111"/>
  <text x="578" y="146" font-size="13" fill="#ffffff">Rechercher</text>
  <text x="60" y="204" font-size="13" fill="#555555">2 trajets trouvés</text>
  <rect x="60" y="220" width="680" height="88" fill="none" stroke="#111111"/>
  <text x="80" y="250" font-size="15" font-weight="bold" fill="#111111">Paris → Lyon</text>
  <text x="80" y="272" font-size="12" fill="#555555">samedi 25 juillet 2026 à 08:15 · durée 2 h</text>
  <text x="80" y="294" font-size="13" fill="#111111">45,00 €   ·   50 places restantes</text>
  <rect x="600" y="248" width="120" height="32" fill="#111111"/>
  <text x="632" y="269" font-size="13" fill="#ffffff">Réserver</text>
  <rect x="60" y="324" width="680" height="88" fill="none" stroke="#111111"/>
  <text x="80" y="354" font-size="15" font-weight="bold" fill="#111111">Paris → Lyon</text>
  <text x="80" y="376" font-size="12" fill="#555555">samedi 25 juillet 2026 à 17:30 · durée 2 h</text>
  <text x="80" y="398" font-size="13" fill="#111111">42,00 €   ·   12 places restantes</text>
  <rect x="600" y="352" width="120" height="32" fill="#111111"/>
  <text x="632" y="373" font-size="13" fill="#ffffff">Réserver</text>
  <rect x="60" y="440" width="680" height="70" fill="none" stroke="#555555" stroke-dasharray="6,5"/>
  <text x="230" y="470" font-size="14" font-weight="bold" fill="#111111">État vide : « Aucun trajet trouvé. »</text>
  <text x="200" y="492" font-size="12" fill="#555555">Suggestion : modifier les critères ou changer la date de départ.</text>
  <text x="24" y="540" font-size="11" fill="#888888">Écran 2 — Résultats · GET /api/trips?origin=&amp;destination=&amp;date=</text>
</svg>
